<svg xmlns="http://www.w3.org/2000/svg" viewBox="0 0 266.46 78.93"><defs><style>.cls-1{fill:#3da7bf;}.cls-1,.cls-2,.cls-3,.cls-4,.cls-5,.cls-6,.cls-7,.cls-8{fill-rule:evenodd;}.cls-2{fill:#049dbf;}.cls-3{fill:#2c798a;}.cls-10,.cls-4{fill:#025e73;}.cls-5{fill:#4a7308;}.cls-6{fill:#ffc928;}.cls-7{fill:#ffb200;}.cls-8{fill:#ff8e01;}.cls-9{fill:#013440;}.cls-10{font-size:30px;font-family:Montserrat-Bold, Montserrat;font-weight:700;letter-spacing:0.15em;}.cls-11{font-size:17px;font-family:CalistoMT-Italic, Calisto MT;font-style:italic;letter-spacing:0.13em;}.cls-12{letter-spacing:0.14em;}.cls-13{letter-spacing:0.15em;}.cls-14{letter-spacing:0.17em;}.cls-15{letter-spacing:0.15em;}</style></defs><g id="Layer_2" data-name="Layer 2"><g id="Layer_1-2" data-name="Layer 1"><path class="cls-1" d="M55.78,51.64H9.46Q10.66,53.34,12,55H53.22C54.12,53.88,55,52.77,55.78,51.64Z"/><path class="cls-2" d="M50.54,57.94H14.7c1.19,1.31,2.43,2.59,3.7,3.85H46.84C48.1,60.53,49.34,59.25,50.54,57.94Z"/><path class="cls-3" d="M43.64,64.91h-22L24.89,68H40.35Z"/><path class="cls-4" d="M28.25,71q2.28,2.1,4.37,4.12C34,73.81,35.47,72.44,37,71Z"/><path class="cls-5" d="M24.58,32.11c-6.21,5.31-12.35,10.67-18.6,16l.44.76H45.25Z"/><path class="cls-5" d="M57,48.82c1.53-2.56,3.39-6.46,5.13-9.21L46.79,27.36c-8.72,6.59-.07-.82-12.69,10L48.18,48.82Z"/><path class="cls-6" d="M61.9,37.64a35.14,35.14,0,0,0-2.26-17,27.85,27.85,0,0,0-9.83-12.1l0,0a30,30,0,0,0-8.16-4.07,29.44,29.44,0,0,0-17.94,0,29.89,29.89,0,0,0-8.17,4.07l0,0a28,28,0,0,0-9.83,12.1,30.53,30.53,0,0,0-2.3,16,26.79,26.79,0,0,0,2.23,7.61l4-3.46c-.2-.57-.39-1.17-.56-1.79-.21-.78-.39-1.54-.52-2.29s-.21-1.4-.27-2.11-.09-1.41-.09-2.12A24.57,24.57,0,0,1,15.38,15.1C23.47,7,36.16,6.34,45.61,12.42,52,16.57,56,25.06,56,32.61a1.5,1.5,0,0,1,0,.22Z"/><path class="cls-7" d="M25.66,29.43l6.72,5.45L44.33,24.61a1.9,1.9,0,0,1,1.21-.46,1.93,1.93,0,0,1,1.22.43l7.32,6a21.53,21.53,0,0,0-42.93,2.39c0,.63,0,1.25.08,1.86s.14,1.25.24,1.84.27,1.37.44,2l.13.43,11.18-9.61h0A1.91,1.91,0,0,1,24.44,29,1.93,1.93,0,0,1,25.66,29.43Z"/><path class="cls-8" d="M26.92,29l6.72,5.46L45.46,24.31a14.61,14.61,0,0,0-1.73-2.11,14,14,0,0,0-23.95,9.92c0,.32,0,.63,0,.94l4.68-4h0a1.87,1.87,0,0,1,1.21-.45A1.83,1.83,0,0,1,26.92,29Z"/><path class="cls-9" d="M2.8,19.46A33.69,33.69,0,0,0,.27,37.06C2,50.57,13.92,61.49,24.26,71c2.6,2.39,5.1,4.68,7.27,6.86l1.09,1.09,1.09-1.09C35.87,75.66,38.37,73.37,41,71l1-.87a.86.86,0,0,0,.14-.13c2.13-2,4.3-4,6.42-6.05a.8.8,0,0,0,.13-.13c2.26-2.22,4.46-4.53,6.48-6.92l.09-.11c5-5.94,8.85-12.45,9.79-19.71a33.69,33.69,0,0,0-2.53-17.6A31.11,31.11,0,0,0,51.51,6h0a33,33,0,0,0-9-4.46,32.19,32.19,0,0,0-19.8,0,33,33,0,0,0-9,4.46h0A31,31,0,0,0,2.8,19.46ZM7,47.11,19,36.78l8.59,7a1.54,1.54,0,1,0,1.94-2.39L21.4,34.74,24.56,32,44.08,47.87H7.44Zm47.16-17-7.32-6a1.92,1.92,0,0,0-1.22-.42,1.87,1.87,0,0,0-1.21.45l-12,10.28L25.73,29a1.82,1.82,0,0,0-1.21-.42A1.88,1.88,0,0,0,23.3,29h0L12.11,38.65,12,38.22c-.17-.63-.32-1.3-.44-2a18.12,18.12,0,0,1-.24-1.84c-.05-.61-.08-1.24-.08-1.87A21.53,21.53,0,0,1,51.74,22.34h0A21.38,21.38,0,0,1,54.16,30.12ZM32.62,74.58q-2.08-2-4.37-4.12H37C35.47,71.86,34,73.23,32.62,74.58Zm7.73-7.21H24.89q-1.63-1.5-3.29-3.06h22Q42,65.87,40.35,67.37Zm6.49-6.15H18.4c-1.27-1.26-2.51-2.54-3.7-3.84H50.54C49.34,58.68,48.1,60,46.84,61.22Zm6.38-6.93H12Q10.66,52.64,9.46,51H55.78C55,52.08,54.12,53.19,53.22,54.29Zm4.58-6.42H49L34.89,36.43l5.51-4.74,6.7,5.43,2,1.61A1.54,1.54,0,1,0,51,36.34l-2-1.61-6.26-5.08,2.88-2.48L61.27,39.89A31.84,31.84,0,0,1,57.8,47.87ZM15.46,8.58l0,0a30,30,0,0,1,8.17-4.07,29.44,29.44,0,0,1,17.94,0,30.17,30.17,0,0,1,8.17,4.07l0,0a27.85,27.85,0,0,1,9.83,12.1,30.62,30.62,0,0,1,2.33,15.79l-4.58-3.73a.9.9,0,0,0,0-.23,24.49,24.49,0,0,0-2.19-10.17h0a24.62,24.62,0,0,0-47,10.17c0,.71,0,1.42.09,2.12s.15,1.41.28,2.11S8.81,38.25,9,39c.17.62.36,1.22.57,1.79l-4,3.46a26.49,26.49,0,0,1-2.24-7.61,30.63,30.63,0,0,1,2.3-16A27.94,27.94,0,0,1,15.46,8.58Z"/><text class="cls-10" transform="translate(86.85 39.89)">SURREAL</text><text class="cls-11" transform="translate(104.71 63.39)">T<tspan class="cls-12" x="13.34" y="0">r</tspan><tspan class="cls-13" x="21.31" y="0">avel A</tspan><tspan x="77.45" y="0">g</tspan><tspan class="cls-13" x="86.9" y="0">en</tspan><tspan class="cls-14" x="106.87" y="0">c</tspan><tspan class="cls-15" x="115.8" y="0">y</tspan></text></g></g></svg>